<svg width="12" height="20" viewBox="0 0 12 20" fill="none" xmlns="http://www.w3.org/2000/svg">
<path d="M5.22914 19.9091H6.8101L6.81756 18.2013C10.0168 17.9702 11.8513 16.2102 11.8588 13.712C11.8513 11.0646 9.66628 9.85653 7.36941 9.31214L6.87722 9.18536L6.90705 4.9272C8.10023 5.136 8.86834 5.85191 8.98766 6.92578H11.6499C11.6052 4.55433 9.74086 2.82421 6.92196 2.55575L6.92942 0.818176H5.34846L5.341 2.55575C2.54448 2.83913 0.530984 4.55433 0.538441 7.02272C0.538441 9.21519 2.09704 10.4755 4.61017 11.1243L5.28134 11.2958L5.25151 15.8075C3.91664 15.5987 2.95463 14.8381 2.85769 13.4883H0.135742C0.240146 16.2848 2.16415 17.9478 5.23659 18.2013L5.22914 19.9091ZM6.83248 15.8075L6.86231 11.7134C8.21955 12.1087 9.08461 12.6307 9.09206 13.6896C9.08461 14.7933 8.19718 15.5838 6.83248 15.8075ZM5.29625 8.78267C4.26713 8.45454 3.3275 7.91015 3.34242 6.8512C3.34988 5.8892 4.07324 5.14346 5.32608 4.9272L5.29625 8.78267Z" fill="#17EC9D"/>
</svg>
