<svg width="36" height="14" viewBox="0 0 36 14" fill="none" xmlns="http://www.w3.org/2000/svg">
<path d="M2.52967 13.5L3.60926 10.2944H8.52807L9.61404 13.5H12.1437L7.53153 0.5H4.6058L0 13.5H2.52967ZM4.24806 8.40283L6.01756 3.16602H6.11977L7.88926 8.40283H4.24806Z" fill="#17EC9D"/>
<path d="M14.0785 13.5H22.6385V11.5259H16.4485V7.97754H22.1467V6.00342H16.4485V2.47412H22.5874V0.5H14.0785V13.5Z" fill="#17EC9D"/>
<path d="M29.6503 13.5C33.6364 13.5 36 11.0498 36 6.9873C36 2.9375 33.6364 0.5 29.7397 0.5H25.2169V13.5H29.6503ZM27.5869 11.4624V2.5376H29.6055C32.263 2.5376 33.6492 4.01025 33.6492 6.9873C33.6492 9.97705 32.263 11.4624 29.5353 11.4624H27.5869Z" fill="#17EC9D"/>
</svg>
