<svg width="20" height="20" viewBox="0 0 20 20" fill="none" xmlns="http://www.w3.org/2000/svg">
<path fill-rule="evenodd" clip-rule="evenodd" d="M10 19.6C15.302 19.6 19.6 15.3019 19.6 9.99999C19.6 4.69806 15.302 0.399994 10 0.399994C4.69809 0.399994 0.400024 4.69806 0.400024 9.99999C0.400024 15.3019 4.69809 19.6 10 19.6ZM9.65238 13.2456L14.4475 8.45352C14.6732 8.22792 14.8 7.92196 14.8 7.60293C14.8 7.28388 14.6732 6.97792 14.4475 6.75233C14.2217 6.52673 13.9156 6.39999 13.5963 6.39999C13.2771 6.39999 12.9709 6.52673 12.7452 6.75233L8.80125 10.7058L7.25484 9.14838C7.0291 8.92278 6.72294 8.79605 6.40371 8.79605C6.08446 8.79605 5.77831 8.92278 5.55258 9.14838C5.32684 9.37397 5.20002 9.67993 5.20002 9.99898C5.20002 10.318 5.32684 10.624 5.55258 10.8496L7.95013 13.2456C8.06156 13.3579 8.19415 13.447 8.34023 13.5079C8.48631 13.5687 8.64299 13.6 8.80125 13.6C8.9595 13.6 9.11618 13.5687 9.26227 13.5079C9.40835 13.447 9.54093 13.3579 9.65238 13.2456Z" fill="white"/>
</svg>
